<?xml version="1.0" encoding="utf-8"?>
<svg id="master-artboard" viewBox="0 0 645 1155" version="1.1" xmlns="http://www.w3.org/2000/svg" x="0px" y="0px" width="645px" height="1155px" enable-background="new 0 0 1400 1400"><rect id="ee-background" x="0" y="0" width="645" height="1155" style="fill: white; fill-opacity: 0; pointer-events: none;"/>
<linearGradient id="SVGID_1_" gradientUnits="userSpaceOnUse" x1="-1.571334e-008" y1="1.571425e-008" x2="1400" y2="1400">
	<stop offset="0" style="stop-color:#5289FF"/>
	<stop offset="1" style="stop-color:#63C6FF"/>
</linearGradient>

<linearGradient id="SVGID_2_" gradientUnits="userSpaceOnUse" x1="272" y1="269" x2="1175" y2="1172">
	<stop offset="0" style="stop-color:#3E68EA"/>
	<stop offset="1" style="stop-color:#4CA9E7"/>
</linearGradient>

<linearGradient id="SVGID_3_" gradientUnits="userSpaceOnUse" x1="699.5" y1="1278" x2="699.5" y2="121">
	<stop offset="0" style="stop-color:#4FD0FF"/>
	<stop offset="1" style="stop-color:#145CD9"/>
</linearGradient>
<path d="M 374 121 H 1025 V 1278 H 374 V 121 Z" fill-rule="evenodd" clip-rule="evenodd" fill="url(#SVGID_3_)" transform="matrix(1, 0, 0, 1, -378.29461669921875, -121.55035400390625)"/>
<g transform="matrix(1, 0, 0, 1, -378.29461669921875, -121.55035400390625)">
	<path fill-rule="evenodd" clip-rule="evenodd" fill="#8FF9FF" d="M645.1,613.1c-0.9,0-1.7-0.7-1.7-1.6c0-0.9,0.8-1.7,1.7-1.7&#10;&#9;&#9;c0.9,0,1.7,0.7,1.7,1.7C646.8,612.3,646,613.1,645.1,613.1L645.1,613.1z M443.9,538.4c-0.4,0-0.8-0.3-0.8-0.7&#10;&#9;&#9;c0-0.4,0.3-0.7,0.8-0.7c0.4,0,0.7,0.3,0.7,0.7C444.7,538.1,444.3,538.4,443.9,538.4L443.9,538.4z M997.3,722.9&#10;&#9;&#9;c-0.4,0-0.7-0.3-0.7-0.7c0-0.4,0.3-0.7,0.7-0.7s0.7,0.3,0.7,0.7C998,722.6,997.7,722.9,997.3,722.9L997.3,722.9z M902.5,574.4&#10;&#9;&#9;c-0.4,0-0.7-0.3-0.7-0.7c0-0.4,0.3-0.7,0.7-0.7c0.4,0,0.7,0.3,0.7,0.7C903.2,574,902.8,574.4,902.5,574.4L902.5,574.4z&#10;&#9;&#9; M829.1,561.4c-0.4,0-0.7-0.3-0.7-0.7c0-0.4,0.3-0.7,0.7-0.7c0.4,0,0.7,0.3,0.7,0.7C829.8,561.1,829.5,561.4,829.1,561.4&#10;&#9;&#9;L829.1,561.4z M433.2,732.9c-0.4,0-0.8-0.3-0.8-0.7c0-0.4,0.3-0.7,0.8-0.7c0.4,0,0.7,0.3,0.7,0.7&#10;&#9;&#9;C433.9,732.6,433.6,732.9,433.2,732.9L433.2,732.9z M421.9,588.7c-0.4,0-0.7-0.3-0.7-0.8c0-0.4,0.3-0.7,0.7-0.7&#10;&#9;&#9;c0.4,0,0.7,0.3,0.7,0.7C422.6,588.4,422.3,588.7,421.9,588.7L421.9,588.7z M546.7,687.2c-0.6,0-1.1-0.5-1.1-1.1&#10;&#9;&#9;c0-0.6,0.5-1.1,1.1-1.1c0.6,0,1.1,0.5,1.1,1.1C547.8,686.8,547.3,687.2,546.7,687.2L546.7,687.2z M943,629.5&#10;&#9;&#9;c-0.6,0-1.1-0.5-1.1-1.1s0.5-1.1,1.1-1.1c0.6,0,1.1,0.5,1.1,1.1S943.6,629.5,943,629.5L943,629.5z M547.8,602.4&#10;&#9;&#9;c-0.6,0-1.1-0.5-1.1-1.1c0-0.6,0.5-1.1,1.1-1.1c0.6,0,1.1,0.5,1.1,1.1C548.9,601.9,548.4,602.4,547.8,602.4L547.8,602.4z&#10;&#9;&#9; M892.9,668.1c-0.6,0-1.1-0.5-1.1-1.1c0-0.6,0.5-1.1,1.1-1.1c0.6,0,1.1,0.5,1.1,1.1C894,667.6,893.5,668.1,892.9,668.1L892.9,668.1&#10;&#9;&#9;z M645,501.4c-0.9,0-1.7-0.8-1.7-1.7c0-0.9,0.7-1.7,1.7-1.7c0.9,0,1.6,0.8,1.6,1.7C646.6,500.7,645.9,501.4,645,501.4L645,501.4z&#10;&#9;&#9; M941.8,532.5c-0.9,0-1.6-0.8-1.6-1.7c0-0.9,0.7-1.7,1.6-1.7s1.7,0.8,1.7,1.7C943.5,531.8,942.7,532.5,941.8,532.5L941.8,532.5z"/>
	<path fill-rule="evenodd" clip-rule="evenodd" fill="#2581E3" d="M1025,661.9l-205.9,0.7l171-17l-51-2.2l85.9-8.9V661.9z&#10;&#9;&#9; M374,714.5l219.5-4.4l-137.6,9.6l417.5-3.7L374,746.4V714.5z M470.9,615h101.5l91.9-9H540.5L470.9,615z"/>
</g>
<g transform="matrix(1, 0, 0, 1, -378.29461669921875, -121.55035400390625)">
	<linearGradient id="SVGID_4_" gradientUnits="userSpaceOnUse" x1="699.5" y1="606.7237" x2="699.5" y2="1278">
		<stop offset="0" style="stop-color:#1E5CC6"/>
		<stop offset="1" style="stop-color:#3B83FF"/>
	</linearGradient>
	<path d="M 374 843 L 457.8999938964844 791.9000244140625 L 466.70001220703125 795.5999755859375 L 572.4000244140625 699.5 L 608.2999877929688 705.2000122070312 L 651.2999877929688 670.5 L 706.2000122070312 606.7000122070312 L 765.7000122070312 665.9000244140625 L 786.2000122070312 651.9000244140625 L 833.5 723 L 915.2999877929688 750.2000122070312 L 970.5999755859375 812.7000122070312 L 1025 849 L 1025 1278 L 374 1278 Z" fill-rule="evenodd" clip-rule="evenodd" fill="url(#SVGID_4_)"/>
	<linearGradient id="SVGID_5_" gradientUnits="userSpaceOnUse" x1="679.2061" y1="606.7237" x2="679.2061" y2="1003.0141">
		<stop offset="0" style="stop-color:#8FF9FF"/>
		<stop offset="1" style="stop-color:#8FF9FF;stop-opacity:0"/>
	</linearGradient>
	<path fill-rule="evenodd" clip-rule="evenodd" fill="url(#SVGID_5_)" d="M384.1,837.3l74.2-45.4l9.6,15.6l14.8,2.2l20.7,10.4&#10;&#9;&#9;l57-13.7l1.1,23l13.3,8.9L549.3,863l-20-0.7l-62.2,29.3l14.8-15.9l11.1-20l-33,1.1l-10-4.8l-40.3,2.6l30-24.8l-41.3,9.7&#10;&#9;&#9;L384.1,837.3z M821,788.6l8.9-6.7l11.9-5.2l-3,9.6L821,788.6z M729.9,947.8l25.2-27.4l27.4-3.7l-17.8,14.1L729.9,947.8z M747.7,875&#10;&#9;&#9;l50.4-38h28.9l45.9-39l7.4,18.6l51.8,25.3v16.3l14.2,8.9l28.2,17.8l-14.8,10.4l-37.8,22.2l-12.6,3.7l14.1-37.8l-48.1,11.9&#10;&#9;&#9;l-46.7-5.9l-22.2,5.2l22.2-23L804,882.7l-37.1,2.9l-45.9,23l46.6-35.7L747.7,875z M753.6,738.2l17.4-7.8l17-6.3l-5.2,14.1l-24,6.3&#10;&#9;&#9;L753.6,738.2z M729.2,696.3l12.9-14.8l23.6-15.7l20.6-13.8l0.3,18.7l11.5,17.3L772.9,702h-16.7l-45.5,12.7L729.2,696.3z&#10;&#9;&#9; M608.4,705.2l35.2-0.3l18.5-8.5l20.4-5.5l-6.4,9.2l39.9-23.3v-9.6l-8.4-10l4.5-20.4l-5.9-30l-54.8,63.7L608.4,705.2z M574.7,795.2&#10;&#9;&#9;l8.9-5.2l26.3-7.4l-11.5,8.5L574.7,795.2z M641,757.5l12.2-16.3l32.6-12.2l9.6,14.4l24.8,1.1l27,9.3l-54.4,41.1l-35.2,8.2&#10;&#9;&#9;l-25.5,13.7L651,776l-24.1,2.6L641,757.5z M572.4,699.5l-105.5,96.1l23.4,0.7l12.2,2.9l28.1-8.5l34.4-30.7l14.1-2.2l-7,8.5&#10;&#9;&#9;l46.6-25.2l-25.5-13.3L572.4,699.5z M503.2,1003l5.6-10.7l8.5-4.8L503.2,1003z M390.1,868.6l3.5-5.6l8.2-0.6L390.1,868.6z&#10;&#9;&#9; M427.3,885.3l3.5-5.2l10.9-4.4l11.9-8.2l-7.6,10.7l-16.3,9.2l-9.2,1.9L427.3,885.3z M407.7,922.5l-8.3,3.7l-3.7,5.2l10.5-5&#10;&#9;&#9;L407.7,922.5z M493.8,887.1l-33,17.7l-8.3,13.7l10.7-9.8l13.3-6.8h14.6L493.8,887.1z M653.8,842.7l4.8-7l5.9-2.6l-2.2,5.5&#10;&#9;&#9;L653.8,842.7z M595.6,873l8.1-15.6l33.4-15.5l-13.3,15.5L595.6,873z M434.1,984.9l54.8-24.5l51.1-16.3l60-40.8l35.6-13.3&#10;&#9;&#9;l-18.5,25.2L595.6,933L563,982.6l-20-17.8l-29.6,0.7L434.1,984.9z"/>
</g>
<g transform="matrix(1, 0, 0, 1, -378.29461669921875, -121.55035400390625)">
	<linearGradient id="SVGID_6_" gradientUnits="userSpaceOnUse" x1="699.5" y1="1020.2669" x2="699.5" y2="1278">
		<stop offset="0" style="stop-color:#1E5CC6"/>
		<stop offset="1" style="stop-color:#3B83FF"/>
	</linearGradient>
	<path fill-rule="evenodd" clip-rule="evenodd" fill="url(#SVGID_6_)" d="M374,1160.4l1.3-0.6c-0.3-2-0.3-3.8-1.3-5.4v-6.8&#10;&#9;&#9;c3,1.9,4.7,5.1,6.9,9.8l1.3-0.5c-0.9-7.6-3-13.4-5.8-18.5c3.9,3.9,7.3,9.4,10,16.7c15.4-6.8,31-13.3,46.8-19.4&#10;&#9;&#9;c-7.7-5.2-15.2-8.4-22.4-7.8c8.6-4.5,18.6-1.8,29.4,5.1l0.3-0.1c-5.6-9.1-11.6-15.7-18.3-18.6c6.8-2.4,16,4.2,26.4,15.2&#10;&#9;&#9;c-10.1-23.8-22.4-40.8-36.6-51c14.7,7.2,28,18.4,37,41.7c-1-17-4.8-29.3-13-33.6c7.1-0.6,14.5,5.2,22.3,24.1&#10;&#9;&#9;c-0.9-14.6-4.6-25.4-9.6-34.5c3.7,3.6,7,8.2,10,13.8c10.3,5.6,19.8,13.4,27.4,26.4c1.5-0.5,3-1,4.5-1.5c-2-9-5.5-15.4-11-18.3&#10;&#9;&#9;c5.9-0.5,12.1,3.4,18.5,15.9c0.9-0.3,1.9-0.6,2.8-0.9c-1.6-10.1-4.7-18.2-8.6-25.3c3.9,3.8,7.2,8.5,10.3,14.4&#10;&#9;&#9;c5.7-2.9,12.4-0.8,19.5,3.9c-3.6-6.1-7.6-10.5-12.1-12.5c4.4-1.6,10.4,2.7,17.1,9.9c-6.6-15.5-14.5-26.5-23.8-33.1&#10;&#9;&#9;c9.6,4.7,18.2,12,24,27.1c-0.7-11-3.1-19-8.4-21.8c4.6-0.4,9.4,3.4,14.5,15.7c-0.6-9.5-3-16.5-6.2-22.4&#10;&#9;&#9;c8.7,10.3,8.8,23.8,22.6,29.3c-2.8-3.7-5.8-6.4-9-7.8c6.9-2.4,12.4,2.2,15.4,6c-6.2-13.5-13.6-23.2-22.1-29.2&#10;&#9;&#9;c9.6,4.7,18.2,12,24,27.1c-0.7-11-3.1-19-8.4-21.8c4.6-0.4,9.4,3.4,14.5,15.7c-0.6-9.5-3-16.5-6.2-22.4c5.6,5.5,9.9,14.4,13,26.7&#10;&#9;&#9;c3.5-0.9,4.5-6.8,4-11.7c19,7.1,45.8-0.6,65.8-4.8c-4-5.5-7.3-9.8-12.9-13.2c8.9,2.8,15.9,7.5,20.9,11.6c-0.3-4.4-4.3-8.4-10-9.7&#10;&#9;&#9;c7.8-0.7,15.1,5,17.5,8.2c-0.7-5.3-4.5-10.6-6.3-13.9c2.8,2.8,7.1,8.8,9.3,13.3c2-0.4,3.1-4.5,2.3-7.3&#10;&#9;&#9;c28.7,3.4,93.5-9.4,138.8-14.3c-2.1-2.3-7.8-8-14.8-9c6.2-2.2,15.8,4.2,20.3,8.9c-6-12.5-13.1-21.7-21.2-27.4&#10;&#9;&#9;c9.6,4.7,18.2,12,24,27.1c-0.7-11-3.1-19-8.4-21.8c4.6-0.4,9.4,3.4,14.5,15.7c-0.6-9.5-3-16.5-6.2-22.4c5.6,5.6,10,14.7,13.1,27.3&#10;&#9;&#9;c7.2-0.7,13.5-4.3,18.1-7.8c4.2,1.3,9.4,2.1,15.3,2.6c-1.3-1.7-3.6-4.1-5.4-5.7c17.8,4.9,64.4,4.3,88,3.5c-3.9-2.4-6.2-5-7.7-8.6&#10;&#9;&#9;c2.6,2.4,12.5,7.7,21.1,8.8c-0.4-2.7-3.5-6.1-8.4-9.1c21.8,3.8,69.5,7.5,82.5,7.6v239H374V1160.4z M502.8,1101&#10;&#9;&#9;c1.4,2.7,2.7,5.6,4,8.7c3.6-1.2,7.2-2.3,10.8-3.4C512.5,1102.8,507.5,1100.7,502.8,1101L502.8,1101z M459.3,1091.4&#10;&#9;&#9;c4.2,8.2,7.7,18.5,10.5,30.8c3.9-1.4,7.8-2.7,11.8-4.1C474.8,1106.8,467.4,1098,459.3,1091.4L459.3,1091.4z"/>
	<linearGradient id="SVGID_7_" gradientUnits="userSpaceOnUse" x1="711.7067" y1="1108.0867" x2="711.7067" y2="1278">
		<stop offset="0" style="stop-color:#1E5CC6"/>
		<stop offset="1" style="stop-color:#3B83FF"/>
	</linearGradient>
	<path fill-rule="evenodd" clip-rule="evenodd" fill="url(#SVGID_7_)" d="M1025,1108.5c0-3.8-309.2,22.3-436,60&#10;&#9;&#9;c83.8-17.4,186.3-33.8,280.7-30.3c-156.4,3.7-322.8,60.9-471.3,139.9c208.8,0,417.6,0,626.6,0c0-57,0-113.2,0-169.6V1108.5z"/>
</g>




</svg>