<?xml version="1.0" encoding="utf-8"?>
<svg id="master-artboard" viewBox="0 0 645 1155" version="1.1" xmlns="http://www.w3.org/2000/svg" x="0px" y="0px" width="645px" height="1155px" enable-background="new 0 0 1400 1400"><rect id="ee-background" x="0" y="0" width="645" height="1155" style="fill: white; fill-opacity: 0; pointer-events: none;"/>
<linearGradient id="SVGID_1_" gradientUnits="userSpaceOnUse" x1="1400" y1="1400" x2="4.714070e-008" y2="-4.714116e-008">
	<stop offset="0" style="stop-color:#FF9D70"/>
	<stop offset="1" style="stop-color:#FFF1A3"/>
</linearGradient>

<linearGradient id="SVGID_2_" gradientUnits="userSpaceOnUse" x1="1175.75" y1="1172.25" x2="272.25" y2="268.75">
	<stop offset="0" style="stop-color:#EC8B5B"/>
	<stop offset="1" style="stop-color:#EFD181"/>
</linearGradient>

<linearGradient id="SVGID_3_" gradientUnits="userSpaceOnUse" x1="700.5" y1="121" x2="700.5" y2="1278">
	<stop offset="0" style="stop-color:#FF9D2E"/>
	<stop offset="1" style="stop-color:#FFFFBA"/>
</linearGradient>
<path d="M 375 121 H 1026 V 1278 H 375 V 121 Z" fill-rule="evenodd" clip-rule="evenodd" fill="url(#SVGID_3_)" transform="matrix(1, 0, 0, 1, -380.7752380371094, -122.79069519042969)"/>
<path fill-rule="evenodd" clip-rule="evenodd" fill="#FFEC8C" d="M375,712l244.1,10.4l-171.8,8.8L800,746H375V712z M808.9,861.6&#10;&#9;l-106.7-1.5l66.7,5.9L808.9,861.6z M1026,800.9L626.5,812l399.5,14.8V800.9z" transform="matrix(1, 0, 0, 1, -380.7752380371094, -122.79069519042969)"/>
<g transform="matrix(1, 0, 0, 1, -380.7752380371094, -122.79069519042969)">
	<linearGradient id="SVGID_4_" gradientUnits="userSpaceOnUse" x1="484.646" y1="850.55" x2="484.646" y2="1041">
		<stop offset="0" style="stop-color:#B06A41"/>
		<stop offset="1" style="stop-color:#FFEB99"/>
	</linearGradient>
	<path d="M 381.29998779296875 1041 L 399.1000061035156 937.2000122070312 L 393.20001220703125 903.9000244140625 L 399.1000061035156 889.0999755859375 L 392.3999938964844 878 L 393.20001220703125 864.5999755859375 L 456.1000061035156 850.5999755859375 L 464.29998779296875 863.0999755859375 L 462.79998779296875 900.2000122070312 L 482.79998779296875 915.7000122070312 L 496.1000061035156 1012.5999755859375 L 525.7000122070312 1018.7000122070312 L 531 947.5999755859375 L 542.0999755859375 931.2999877929688 L 545 889.7999877929688 L 564.2999877929688 898.7000122070312 L 565 932 L 580.5999755859375 998.7000122070312 L 588 1041 Z" fill-rule="evenodd" clip-rule="evenodd" fill="url(#SVGID_4_)"/>
	<linearGradient id="SVGID_5_" gradientUnits="userSpaceOnUse" x1="470.5427" y1="852.3336" x2="470.5427" y2="1041">
		<stop offset="0" style="stop-color:#F7AC56"/>
		<stop offset="1" style="stop-color:#FFE478"/>
	</linearGradient>
	<path fill-rule="evenodd" clip-rule="evenodd" fill="url(#SVGID_5_)" d="M448.2,852.3l-37,12.3l6.6,11.1l-5.9,19.6l3.7,41.9&#10;&#9;&#9;l-8.9,4.4l-5.2,33l-9.3,27.1l5.5,20.3l9.7-19.2l0.2-27.3l10.5-35.3l1.1-30.7l7.8-14.8l15.9,30l0.7,20.8l-4.8,21.1l2.9,28.6&#10;&#9;&#9;l0.1-26.4l5.2-17l11.1,19.6l7.1,56l26.6,13.8H381.3l17.8-103.8l-5.9-33.3l5.9-14.8l-6.7-11.1l0.8-13.3L448.2,852.3z M525.7,1018.7&#10;&#9;&#9;l5.2-71.1l11.1-16.3l3-41.5l8.3,10.7l-0.7,20.7l-7.4,14.1l-1.9,20l-6.6,25.2l9.6-17.8l1.5-15.6l5.9-8.5l6,22.6l-4.2,66.3l-24,4.8&#10;&#9;&#9;L525.7,1018.7z M461.4,961.8l-1.8-12.3l3-10.7l1.9,8.5L461.4,961.8z M446.3,907.6l-1.9-17l4.1-18.5l2.2,11.8L446.3,907.6z"/>
</g>
<g transform="matrix(1, 0, 0, 1, -380.7752380371094, -122.79069519042969)">
	<linearGradient id="SVGID_6_" gradientUnits="userSpaceOnUse" x1="882.0913" y1="774.2587" x2="882.0913" y2="1041">
		<stop offset="0" style="stop-color:#B06A41"/>
		<stop offset="1" style="stop-color:#FFEB99"/>
	</linearGradient>
	<path d="M 752.7999877929688 1028.4000244140625 L 772 920.9000244140625 L 786.2000122070312 904.5999755859375 L 798.7000122070312 853.5 L 812 839.4000244140625 L 812.7999877929688 814.2999877929688 L 789.7999877929688 786.9000244140625 L 799.5 774.2999877929688 L 921 789.0999755859375 L 932 783.0999755859375 L 987.5999755859375 795 L 992.0999755859375 897.2000122070312 L 998 912.7999877929688 L 1012.7999877929688 1009.0999755859375 L 1025.5 1041 L 738.7000122070312 1041 Z" fill-rule="evenodd" clip-rule="evenodd" fill="url(#SVGID_6_)"/>
	<linearGradient id="SVGID_7_" gradientUnits="userSpaceOnUse" x1="853.1674" y1="774.2587" x2="853.1674" y2="1041">
		<stop offset="0" style="stop-color:#F7AC56"/>
		<stop offset="1" style="stop-color:#FFE478"/>
	</linearGradient>
	<path fill-rule="evenodd" clip-rule="evenodd" fill="url(#SVGID_7_)" d="M921,789.1l-95.9-6.6l-0.4,5.5l38.1,25.2l-0.7,25.2&#10;&#9;&#9;l-9.6,12.9l-5.2,56.3l-15.2,15.5l-12.2-12.6l3.7-54.8l-7.4,55.6l-8.5,10.4l-14.1,55.2l16.3-52.2l8.9-8.2l14.1,11.8l4.1,81.1V928&#10;&#9;&#9;l16.2-15.9l16.1-52.6l21.6,64.4l-8.5,50l13.7-48.9l16.7-32.2l-2.2-36.6l14.1-27.8l-1.1,32.2l-6.6,33.3l9,25.9l-9.9,79.3v41.9H738.7&#10;&#9;&#9;l14.1-12.6L772,920.9l14.1-16.3l12.6-51.1l13.3-14.1l0.8-25.2l-23-27.4l9.7-12.6L921,789.1z M945.8,930.9l17-43.7l0.3,47.4&#10;&#9;&#9;l4.4,12.6l-5.2,26.3L947.2,945L945.8,930.9z M890.4,814.6l-5.4,21.9v13.3l6.2-11.1L890.4,814.6z"/>
</g>
<g transform="matrix(1, 0, 0, 1, -380.7752380371094, -122.79069519042969)">
	<path fill-rule="evenodd" clip-rule="evenodd" fill="#D08F4D" d="M931,949c38.6,0,63,36,95,54.1V1278H375v-250.4&#10;&#9;&#9;c109-24.6,161.5-70.4,213.3-70.4c53.5,0,106,59.9,163.9,58.5C812.8,1014.3,884.5,949,931,949L931,949z"/>
	<linearGradient id="SVGID_8_" gradientUnits="userSpaceOnUse" x1="691.167" y1="949.0266" x2="691.167" y2="1278">
		<stop offset="0" style="stop-color:#F0CD59"/>
		<stop offset="1" style="stop-color:#F0CD59;stop-opacity:0.4"/>
	</linearGradient>
	<path fill-rule="evenodd" clip-rule="evenodd" fill="url(#SVGID_8_)" d="M543.6,1278H375v-250.4c109-24.6,161.5-70.4,213.3-70.4&#10;&#9;&#9;c23.3,15.2-12.9,19.6,15.7,45.5c14.5,13.1-22.1,38.1-97.9,51.2c-63.2,11,103.6,43,229.3,17.4c18,22.1-32.1,33.8-81.5,38.5&#10;&#9;&#9;c43.2,1.6,90.7-2.9,123-11.9c57,71-196.7,122-313.3,116.3c45.3,11.9,105.4,11.6,170.4,0.1c38.7,30.8-17.4,52.7-90.5,63.7H543.6z&#10;&#9;&#9; M816.1,1212.6c69.1-6.8,131.2-19.3,175.6-45.9C1025.5,1210.8,912,1233.5,816.1,1212.6L816.1,1212.6z M752.2,1015.7&#10;&#9;&#9;c60.5-1.4,132-66.7,178.5-66.7c31.8,17.7-7.8,34.6,28.8,53.6c19.8,10.3,10.9,26.8-12.4,40.7c20.2-4.2,44.9-19.5,56.1-17.8&#10;&#9;&#9;c28.5,31.4-97,44.3-155.2,32.2c21.5,0.2,61.4-3.3,84.1-11C869.2,1048.8,805.5,1034.5,752.2,1015.7L752.2,1015.7z"/>
	<linearGradient id="SVGID_9_" gradientUnits="userSpaceOnUse" x1="816.8541" y1="1025.422" x2="816.8541" y2="1278">
		<stop offset="0" style="stop-color:#B37055"/>
		<stop offset="1" style="stop-color:#B37055;stop-opacity:0.4"/>
	</linearGradient>
	<path fill-rule="evenodd" clip-rule="evenodd" fill="url(#SVGID_9_)" d="M785.5,1099.7c21.2,13.5,10.8,57.6-87.1,85&#10;&#9;&#9;c98-15.9,167.6,11.1,246.8-30C968.5,1142.4,875.6,1133,785.5,1099.7L785.5,1099.7z M1026,1032.2c-6,0-14.1-4.4-18.9-6.8&#10;&#9;&#9;c10.8,19.5-12.2,32.4-106.1,40.7c75.5,3.2,92,20.1,125,17.3V1032.2z M607.7,1278H1026v-10.9c-70,4.8-108.5-1.5-141.1-9.9&#10;&#9;&#9;c-40.6-14.8-43.2,5-104.4,2.9c-66.9-7.6-81.5-31.8-126.1-44.3C633.1,1210.6,682.3,1251,607.7,1278L607.7,1278z M1026,1232.3v-52.4&#10;&#9;&#9;c-10-3.8-22.8-12.6-30.8-13.8c15.3,19.9,0,41.6-46.3,53.6C983.8,1221,995,1232.1,1026,1232.3L1026,1232.3z"/>
</g>
<g transform="matrix(1, 0, 0, 1, -380.7752380371094, -122.79069519042969)">
	<g>
		<path fill-rule="evenodd" clip-rule="evenodd" fill="#A6B362" d="M465.6,1045.7c45.6-0.8,35.6-34.6,37.6-46.9&#10;&#9;&#9;&#9;c3.1-19.4-13.7-15.9-14.6-5.7c-1.2,13.9-3.2,40-18.7,31.1c2.2-10.3,4.3-20.5,6-30.7c7.2-44.3-31.3-36.2-33.3-13&#10;&#9;&#9;&#9;c-0.9,10.3-0.9,19.6-0.9,28.9c-27.5,3.8-18.2-25.9-19.4-39.8c-0.9-10.1-17.8-13.7-14.6,5.7c2,12-7.4,44.2,33.9,46.7&#10;&#9;&#9;&#9;c-0.2,16.1-1.4,33.3-7.3,56l27.3,0.3C462,1067.7,463.6,1056.8,465.6,1045.7L465.6,1045.7z"/>
		<path fill-rule="evenodd" clip-rule="evenodd" fill="#968D4B" d="M465.6,1045.7c5.8-0.1,10.7-0.7,14.8-1.8l3.1,4.9l-1.5-5.4&#10;&#9;&#9;&#9;c6.5-1.9,10.9-4.9,14-8.5l7.9,0.7l-6.5-2.7c7.7-11.1,4.5-26.7,5.7-34.2c0.1-0.9,0.2-1.7,0.3-2.5l8.9,0.8l-8.8-3.6&#10;&#9;&#9;&#9;c-0.2-4.7-2-7.3-4.4-8.3c4.8,6.1,2,39.9-6.1,44c5.6-9.4,7.7-27.3,5.8-35.7c-0.2,5.1-2.3,41.8-16.3,28.1l0,0&#10;&#9;&#9;&#9;c-2.7,4.2-6.6,6-12.6,2.6l0.7-3.3l9,0.8l-8.4-3.4c1.7-8.3,3.4-16.6,4.8-24.8c0.8-5.3,1-9.9,0.7-13.7l6.8-1.5l-7-0.6&#10;&#9;&#9;&#9;c-1.1-8.4-4.9-13.2-9.6-15.1c13.8,17.7-6,74.5-9.5,107c-2,1.5-1.9,3-3.9,4.5c3.6-26,16.9-73.5,12.7-92.7&#10;&#9;&#9;&#9;c-0.9,28.2-11.3,66.3-17.7,96.8l13.2,0.2c0.3-7.5,1.2-15,2.3-22.6l8.1,0.8l-7.7-3.1C464.6,1050.9,465.1,1048.3,465.6,1045.7&#10;&#9;&#9;&#9;L465.6,1045.7z M441.6,1022.2c-1-0.1-2-0.1-3-0.2l-0.8-0.4c1.7-4.6-12.7-9.8-15.1-18c-4.3-14.9,0.4-33.9-3.4-36.3&#10;&#9;&#9;&#9;c0.7,5.4-1.7,31.7,2.5,39.4c-6.9-8.2-0.9-40.8-7.7-45.1c3.8,0.1,7.8,3.4,8.3,8.2c0.1,1.5,0.1,3.1,0.1,4.8l9.5,0.7l-9.6,2.1&#10;&#9;&#9;&#9;c-0.6,12.2-2.7,28.2,9.3,31.7l5.9-6.9l-3.3,7.4c2.1,0.2,4.6,0.2,7.5-0.2C441.7,1013.7,441.7,1017.9,441.6,1022.2L441.6,1022.2z"/>
		<path fill-rule="evenodd" clip-rule="evenodd" fill="#E2F294" d="M425.2,1018.9c-11.5-4.7-15.4-13.4-16.7-22.1l-9.2,0.7l8.9-3.5&#10;&#9;&#9;&#9;c-0.7-7.2,0.1-14.2-0.6-18.5c-0.3-2.3-0.5-4.3-0.3-6l-8.5-2.8l8.9,0.2c0.7-2.7,2.2-4.2,3.9-4.9c-4.8,6.1-3.7,36.6,3,44.6&#10;&#9;&#9;&#9;c-4.2-10.6-4.5-28-2.7-36.4C414.3,997.8,412.2,1010.6,425.2,1018.9L425.2,1018.9z M461.4,961.8c-8.6,0.1-17.9,7.8-18.8,18.8&#10;&#9;&#9;&#9;c-0.3,3.1-0.5,6.2-0.6,9.1l-9.6-0.2l9.4,3.1c-0.3,8.8-0.2,17.1-0.3,25.6l-8.7-0.2l8.6,2.8c-0.2,15.7-1.1,32.3-6.4,53.9l0,0&#10;&#9;&#9;&#9;c17-44.2,1.3-103.4,19.9-108.1c-11.3,5.4-3.5,55.4-13,99.3C452.9,1028,445.7,971.7,461.4,961.8L461.4,961.8z M484,1018.8&#10;&#9;&#9;&#9;L484,1018.8c5.4-5.9,4.1-28,10-31.8c-3.7,3.8-2.3,21.6-6.5,29.3c6.9-8.2,2.4-27.1,9.3-31.4c-2.2,0-4.5,1.2-6.1,3.1l-10.2-0.2&#10;&#9;&#9;&#9;l8.6,2.8c-0.3,0.8-0.5,1.6-0.6,2.6C487.9,1000.6,487.1,1011.6,484,1018.8L484,1018.8z"/>
	</g>
	<path fill-rule="evenodd" clip-rule="evenodd" fill="#B37055" d="M461.7,1075.7c82.2,12.8,191.7-1.1,166.8,5.2&#10;&#9;&#9;c-25.9,6.5-123.5,8.6-194.2-2.8C445.1,1077.4,462.4,1079.4,461.7,1075.7L461.7,1075.7z"/>
</g>




</svg>