<?xml version="1.0" encoding="utf-8"?>
<svg id="master-artboard" viewBox="0 0 645 1155" version="1.1" xmlns="http://www.w3.org/2000/svg" x="0px" y="0px" width="645px" height="1155px" enable-background="new 0 0 1400 1400"><rect id="ee-background" x="0" y="0" width="645" height="1155" style="fill: white; fill-opacity: 0; pointer-events: none;"/>
<linearGradient id="SVGID_1_" gradientUnits="userSpaceOnUse" x1="1400" y1="1400" x2="4.714070e-008" y2="-4.714116e-008">
	<stop offset="0" style="stop-color:#E959FF"/>
	<stop offset="1" style="stop-color:#7F5CFF"/>
</linearGradient>

<linearGradient id="SVGID_2_" gradientUnits="userSpaceOnUse" x1="1175.75" y1="1172.25" x2="272.25" y2="268.75">
	<stop offset="0" style="stop-color:#C443FF"/>
	<stop offset="1" style="stop-color:#703DFF"/>
</linearGradient>

<linearGradient id="SVGID_3_" gradientUnits="userSpaceOnUse" x1="700.5" y1="1279" x2="700.5" y2="122">
	<stop offset="0" style="stop-color:#E959FF"/>
	<stop offset="1" style="stop-color:#501EC7"/>
</linearGradient>
<path d="M 375 122 H 1026 V 1279 H 375 V 122 Z" fill-rule="evenodd" clip-rule="evenodd" fill="url(#SVGID_3_)" transform="matrix(1, 0, 0, 1, -377.0543212890625, -122.7906494140625)"/>
<g transform="matrix(1, 0, 0, 1, -377.0543212890625, -122.7906494140625)">
	<path fill-rule="evenodd" clip-rule="evenodd" fill="#8426DD" d="M375,855.1l257.1,7.4L447,865.2l49.7,4.8H375V855.1z M910.1,617.7&#10;&#9;&#9;l45.4,2.7l18.2-1L910.1,617.7z M933.1,628.4l-59.5,0.9l-36.7-5.9l-33.3-1.1l50.4-0.8L933.1,628.4z M1026,781H630.8l361.5,5.2&#10;&#9;&#9;l-188.6,3l222.3,5.2V781z M419.5,719.6l150.6,0.7l-89.3-6.7l57.5-1l-153.4-2.8l92,7L419.5,719.6z"/>
	<path fill-rule="evenodd" clip-rule="evenodd" fill="#EC70FF" d="M599.9,696.7c-0.9,0-1.7-0.7-1.7-1.7c0-0.9,0.7-1.6,1.7-1.6&#10;&#9;&#9;c0.9,0,1.6,0.7,1.6,1.6C601.5,695.9,600.8,696.7,599.9,696.7L599.9,696.7z M730.5,769.5c-0.4,0-0.7-0.4-0.7-0.8&#10;&#9;&#9;c0-0.4,0.3-0.7,0.7-0.7c0.4,0,0.7,0.4,0.7,0.7C731.2,769.1,730.9,769.5,730.5,769.5L730.5,769.5z M997.9,723.5&#10;&#9;&#9;c-0.4,0-0.7-0.3-0.7-0.7c0-0.4,0.3-0.7,0.7-0.7s0.7,0.3,0.7,0.7C998.6,723.2,998.3,723.5,997.9,723.5L997.9,723.5z M904.6,596.1&#10;&#9;&#9;c-0.4,0-0.7-0.3-0.7-0.8c0-0.4,0.3-0.7,0.7-0.7s0.7,0.3,0.7,0.7C905.3,595.8,905,596.1,904.6,596.1L904.6,596.1z M808.3,721.3&#10;&#9;&#9;c-0.4,0-0.7-0.3-0.7-0.7c0-0.4,0.4-0.7,0.7-0.7c0.4,0,0.7,0.3,0.7,0.7C809,721,808.7,721.3,808.3,721.3L808.3,721.3z M459.4,685.8&#10;&#9;&#9;c-0.4,0-0.7-0.3-0.7-0.7c0-0.4,0.3-0.7,0.7-0.7c0.4,0,0.7,0.3,0.7,0.7C460.1,685.4,459.8,685.8,459.4,685.8L459.4,685.8z&#10;&#9;&#9; M422.5,589.4c-0.4,0-0.7-0.4-0.7-0.8c0-0.4,0.3-0.7,0.7-0.7c0.4,0,0.7,0.4,0.7,0.7C423.3,589,422.9,589.4,422.5,589.4L422.5,589.4&#10;&#9;&#9;z M547.3,687.9c-0.6,0-1.1-0.5-1.1-1.1c0-0.6,0.5-1.1,1.1-1.1c0.6,0,1.1,0.5,1.1,1.1C548.4,687.4,548,687.9,547.3,687.9&#10;&#9;&#9;L547.3,687.9z M943.7,630.1c-0.6,0-1.1-0.5-1.1-1.1s0.5-1.1,1.1-1.1c0.6,0,1.1,0.5,1.1,1.1S944.3,630.1,943.7,630.1L943.7,630.1z&#10;&#9;&#9; M669.2,670.5c-0.6,0-1.1-0.5-1.1-1.1c0-0.6,0.5-1.1,1.1-1.1c0.6,0,1.1,0.5,1.1,1.1C670.3,670,669.8,670.5,669.2,670.5L669.2,670.5&#10;&#9;&#9;z M893.5,668.7c-0.6,0-1.1-0.5-1.1-1.1c0-0.6,0.5-1.1,1.1-1.1c0.6,0,1.1,0.5,1.1,1.1C894.7,668.2,894.2,668.7,893.5,668.7&#10;&#9;&#9;L893.5,668.7z M582.6,542.1c-0.9,0-1.6-0.8-1.6-1.7c0-0.9,0.7-1.7,1.6-1.7c0.9,0,1.7,0.8,1.7,1.7&#10;&#9;&#9;C584.3,541.3,583.6,542.1,582.6,542.1L582.6,542.1z M726.2,621.3c-0.9,0-1.7-0.7-1.7-1.6c0-0.9,0.7-1.7,1.7-1.7&#10;&#9;&#9;c0.9,0,1.6,0.7,1.6,1.7C727.8,620.6,727.1,621.3,726.2,621.3L726.2,621.3z"/>
</g>
<path fill-rule="evenodd" clip-rule="evenodd" fill="#E773FF" d="M574.6,1049c27.7,0,50.3-22.6,50.3-50.3&#10;&#9;c0-27.7-22.6-50.4-50.3-50.4c-27.8,0-50.4,22.6-50.4,50.4C524.2,1026.4,546.8,1049,574.6,1049L574.6,1049z" transform="matrix(1, 0, 0, 1, -377.0543212890625, -122.7906494140625)"/>
<g transform="matrix(1, 0, 0, 1, -377.0543212890625, -122.7906494140625)">
	<g>
		<path fill-rule="evenodd" clip-rule="evenodd" fill="#680EAD" d="M799.2,999c2.7,0,23.8-67.2,23.8-109&#10;&#9;&#9;&#9;c18.3-25,20.7-73.9,19.2-108.2c-1.7-2-3.7-3.3-6-3.7c4.1-3.2,8.3-5.1,12.6-5.9c-3.5-2.1-7.2-3.5-11.3-4.5&#10;&#9;&#9;&#9;c36.9-11.7,74.6-9.1,112.8,2.9c20.8,19.3,38.1,57.2,58.7,74.1c4.7,3,9.8,5.7,16.8,7.4c0,48.9,0,96.9,0,146.9&#10;&#9;&#9;&#9;C949,999,874.6,999,799.2,999L799.2,999z"/>
		<path fill-rule="evenodd" clip-rule="evenodd" fill="#9E23CC" d="M799.2,999c2.7-51,23.8-67.2,23.9-109&#10;&#9;&#9;&#9;c18.3-25,20.7-73.9,19.2-108.2c5.1-1.7,10.6-2.6,16.2-3.3c-2.2,1.3-3.6,3-4.6,5c4.2-2.9,9.5-4.1,15.6-4.3&#10;&#9;&#9;&#9;c2.6,58.7-3.3,77.3,2.2,123c-5.7,14.9-19.8,42.7-26.3,52.2c-2.9-35.7-7.2-64.2-17-64.8c10.1,5.9,0.6,70.1,4.4,104.4&#10;&#9;&#9;&#9;c8.7-4.4,27.8-73.2,43.3-89.1C883.3,916,889.8,930,887,999H799.2z M893.5,900c-9.4-37.5-11.1-52.5-12.2-91.1&#10;&#9;&#9;&#9;c7.4,5,14.8,12.1,22.2,24.5C905.9,864,900.5,883.2,893.5,900L893.5,900z M918.4,900.7c0,10.9,0.8,21.7,2.2,32.6&#10;&#9;&#9;&#9;c5.2,13.5,6.6,16.6,11.9,25.6C926.7,932.9,925.9,905.4,918.4,900.7L918.4,900.7z"/>
	</g>
	<g>
		<path fill-rule="evenodd" clip-rule="evenodd" fill="#680EAD" d="M715.8,999c3.3,0,8.7-61.6,17.4-63.2c3.2,3.9,5.1,14.2,6.3,27.5&#10;&#9;&#9;&#9;C745.8,984,754.4,983,757,999C743.3,999,729.6,999,715.8,999L715.8,999z"/>
		<path fill-rule="evenodd" clip-rule="evenodd" fill="#9E23CC" d="M727.7,943.6c3.1,9.1,1.7,26.6,0.3,44.2&#10;&#9;&#9;&#9;c1.7-3.3,3.2-6.9,4.3-11.9c4.2,5,5.9,13.1,7.2,23.1c-7.9,0-15.7,0-23.7,0C718.3,977,721.5,955.5,727.7,943.6L727.7,943.6z"/>
	</g>
	<g>
		<path fill-rule="evenodd" clip-rule="evenodd" fill="#680EAD" d="M382.2,999c3.3,0,8.1-96.4,19.2-110.7&#10;&#9;&#9;&#9;c3.4-28.3,7.4-54.8,19.2-57.8c8.9-4.4,15.4-0.8,20.8,6.6c-0.5,3.7-1,7.4-1.5,11.1c-0.1,29.3,6.4,46.6,9.6,69.8&#10;&#9;&#9;&#9;c-0.2,45.9,13.2,45.1,17,81.1C438.4,999,410.3,999,382.2,999L382.2,999z"/>
		<path fill-rule="evenodd" clip-rule="evenodd" fill="#9E23CC" d="M437.5,848.1c-0.1,29.3,8.8,46.6,12,69.8&#10;&#9;&#9;&#9;c-0.2,45.9,13.2,45.1,17,81.1H452c-5.3-15-11.1-28.5-17.6-40.7c1.7,13.4,0.5,23.9-1.3,33.8c-0.6-24.1-4.7-46.2-11.3-66.9&#10;&#9;&#9;&#9;c4.4,8.1,8.6,16.7,11.3,29.8c3.6-10.6,5.5-20.5,6.1-29.8c-3.4-18.5-6.4-37.5-8.3-58.7c0.4-10.5,1.6-19.8,3.7-27.6&#10;&#9;&#9;&#9;C436,841.3,436.8,844.5,437.5,848.1L437.5,848.1z"/>
	</g>
</g>
<g transform="matrix(1, 0, 0, 1, -377.0543212890625, -122.7906494140625)">
	<path d="M 375 999 H 1026 V 1279 H 375 V 999 Z" fill-rule="evenodd" clip-rule="evenodd" fill="#C125D9"/>
	<linearGradient id="SVGID_4_" gradientUnits="userSpaceOnUse" x1="700.5" y1="1005.369" x2="700.5" y2="1268">
		<stop offset="0" style="stop-color:#D640ED"/>
		<stop offset="1" style="stop-color:#D640ED;stop-opacity:0"/>
	</linearGradient>
	<path fill-rule="evenodd" clip-rule="evenodd" fill="url(#SVGID_4_)" d="M1026,1005.4l-603.8,4.4L913,1023H375v80.9l651,17.8&#10;&#9;&#9;V1005.4z M375,1261.7l223.2,6.3H375V1261.7z M1026,1225.4l-574.6,11.1L1026,1255V1225.4z M375,1122.4l623,24.4l-458.9,12.6&#10;&#9;&#9;L1026,1175v34H375V1122.4z"/>
	<linearGradient id="SVGID_5_" gradientUnits="userSpaceOnUse" x1="700.5" y1="1267.5912" x2="700.5" y2="1005">
		<stop offset="0" style="stop-color:#A40FD6"/>
		<stop offset="1" style="stop-color:#A40FD6;stop-opacity:0"/>
	</linearGradient>
	<path fill-rule="evenodd" clip-rule="evenodd" fill="url(#SVGID_5_)" d="M1026,1267.6l-603.8-4.9L913,1249H375v-79.9l651-17.8&#10;&#9;&#9;V1267.6z M375,1011.3l223.2-6.3H375V1011.3z M1026,1047.6l-574.6-11.1L1026,1018V1047.6z M375,1150.6l623-24.5l-458.9-12.6&#10;&#9;&#9;L1026,1098v-34H375V1150.6z"/>
</g>
<g transform="matrix(1, 0, 0, 1, -377.0543212890625, -122.7906494140625)">
	<path d="M 718.7999877929688 1106.800048828125 L 757.7000122070312 1104.699951171875 L 956 1105.5999755859375 L 927.5 1107.0999755859375 L 989 1108 L 809 1115.300048828125 L 842.5 1117.0999755859375 L 784 1118.5999755859375 Z" fill-rule="evenodd" clip-rule="evenodd" fill="#8515BD"/>
	<g>
		<path fill-rule="evenodd" clip-rule="evenodd" fill="#680EAD" d="M695.5,1077.4c76.2,9.5,158.4,8.3,239.3,8.3l-15.9,20.2H736.2&#10;&#9;&#9;&#9;C720.1,1099,706.2,1089.1,695.5,1077.4L695.5,1077.4z"/>
		<path fill-rule="evenodd" clip-rule="evenodd" fill="#EC70FF" d="M695.5,1077.7c22.5,2.8,45.6,4.7,68.9,5.9&#10;&#9;&#9;&#9;c-0.3,0.5-0.6,0.9-0.9,1.4c-21.5-1.1-43-2.7-64.5-5.8l8.3,9.4C703.1,1085.3,699.1,1081.6,695.5,1077.7L695.5,1077.7z"/>
	</g>
	<path fill-rule="evenodd" clip-rule="evenodd" fill="#EC70FF" d="M712.7,1106l28.3-2.8l27.2,3.3L712.7,1106z M797,1115.3l28.3-2.8&#10;&#9;&#9;l27.2,3.3L797,1115.3z M862.9,1116.2l27.3-2.8l18.1,1.9L862.9,1116.2z M897.1,1106.5l30.6-3.6l57,5.3L897.1,1106.5z"/>
	<g>
		<path fill-rule="evenodd" clip-rule="evenodd" fill="#680EAD" d="M763.4,1067.2c0.4,1.5,1.3,2.5,2.5,3.3c1-0.2,1.7-0.5,2.4-0.8&#10;&#9;&#9;&#9;c0.5,0,0.9,0.4,1.3,0.9c-3,2.7-2.5,9.6-6,14.4c7.2,1.5,14.1,1.5,20.8,0.5c-0.4-5.5-4.4-15.4-9.5-15.9c-0.8-0.8-1.4-1.9-2-3.1&#10;&#9;&#9;&#9;c4.5-0.6,8.9-1.5,13.4-2.8l-19.9-11.1l-16.3,13.5C754.4,1066.9,758.9,1067.2,763.4,1067.2L763.4,1067.2z"/>
		<path fill-rule="evenodd" clip-rule="evenodd" fill="#EC70FF" d="M767.4,1074.6c-0.9,2.9-1.5,6.6-3.4,9.7c1.9-2.9,3.4-5.9,4.7-8.9&#10;&#9;&#9;&#9;L767.4,1074.6z M776.3,1058.2l-9.9-5.5l-16.3,13.5c1.6,0.2,3.1,0.5,4.8,0.6c-2.3-3.3,8.1-8.9,11.9-13&#10;&#9;&#9;&#9;C770,1055,772.9,1057,776.3,1058.2L776.3,1058.2z"/>
	</g>
	<g>
		<path fill-rule="evenodd" clip-rule="evenodd" fill="#680EAD" d="M841.8,1029.8c0.4,1.5,1.3,2.5,2.5,3.3c1-0.2,1.8-0.5,2.4-0.7&#10;&#9;&#9;&#9;c0.5-0.1,0.9,0.4,1.3,0.9c-2.7,2.4-5.1,6.5-7.8,11.2c-0.9,0.2-1.5,0.2-2.1-0.1l-2-2.1c-0.1-0.1-0.2-0.3-0.3-0.5&#10;&#9;&#9;&#9;c-0.4-0.4-0.7-0.7-1-0.9l-8.7-9.1c-0.9,0.1-1.3,0.6-1.1,1.7l8,8.4c-0.1,0.9,0.1,2.1,0.7,3.4c1.5,1.4,3.7,3.2,6.3,3.9l7,7.3&#10;&#9;&#9;&#9;c0,0.5,0,0.9,0,1.3c-6,11.2-7,16.3-5.3,29.6c1.4,0.1,2.8,0.1,4.1,0.2c0.3-7.2,2.9-14.6,6.5-20.1c1.3,6.9,2.9,14.7,5,21.6&#10;&#9;&#9;&#9;c2.8,0.5,5.6,1,8.4,1.6c-2-5.7-3.7-13.1-4.9-19.9l39.8,41.4h3.3l-43.7-45.1c-0.5-3.5-0.8-6.8-0.9-9.9c2.1-3.2,5.3-5.6,4.7-10.8&#10;&#9;&#9;&#9;c-0.4-5.5-5.7-13.5-10.8-14.1c-0.8-0.8-1.4-1.8-1.9-3c4.4-0.6,8.9-1.5,13.4-2.8l-19.9-11.1l-16.3,13.5&#10;&#9;&#9;&#9;C832.9,1029.5,837.3,1029.8,841.8,1029.8L841.8,1029.8z M842.8,1049.1c2.5-1.9,2.7-4.9,4-3.8c0.6,2,0.4,5.2,0.2,8.2L842.8,1049.1z&#10;&#9;&#9;&#9;"/>
		<path fill-rule="evenodd" clip-rule="evenodd" fill="#EC70FF" d="M841.8,1029.8c0.4,1.5,1.3,2.5,2.5,3.3c0.2,0,0.3-0.1,0.5-0.1&#10;&#9;&#9;&#9;L841.8,1029.8z M846.5,1034.8c-2.1,2.4-4.1,5.8-6.3,9.6c2.3-3.3,4.5-6.5,7-8.9L846.5,1034.8z M826.1,1031.7&#10;&#9;&#9;&#9;c-0.9,0.1-1.3,0.6-1.1,1.7l8,8.4C829.6,1037.8,826,1033.8,826.1,1031.7L826.1,1031.7z M847,1056.4c0,0.5,0,0.9,0,1.3&#10;&#9;&#9;&#9;c-5,8.9-6.3,13.9-5.9,22.3c1.4-7.6,3.4-15,7.8-21.5C848.2,1057.8,847,1057.1,847,1056.4L847,1056.4z M852.8,1019.8l-8.1-4.5&#10;&#9;&#9;&#9;l-16.3,13.5c4.4,0.7,8.9,1,13.3,1c-3-0.4-6.1-0.9-9-1.8c4-3.6,8.2-7.9,12.2-11.5C847.6,1017.3,850.2,1018.9,852.8,1019.8&#10;&#9;&#9;&#9;L852.8,1019.8z"/>
	</g>
</g>




</svg>