<svg viewBox="0 30 250 250" fill="none" xmlns="http://www.w3.org/2000/svg">
<path d="M233.156 117.461C232.281 115.595 230.935 113.99 229.249 112.803C227.564 111.617 225.599 110.89 223.547 110.695C213.321 109.651 203.838 104.879 196.906 97.2891C190.957 90.6021 186.892 82.4542 185.127 73.6797C183.361 64.9052 183.959 55.8191 186.86 47.3516C187.542 45.3076 187.686 43.1219 187.277 41.006C186.868 38.8901 185.919 36.9156 184.524 35.2735C183.243 33.7601 181.588 32.6083 179.724 31.9326C177.86 31.2569 175.852 31.0809 173.899 31.422L173.75 31.4454C160.37 34.3848 148.342 41.6777 139.549 52.1826C130.756 62.6875 125.695 75.8114 125.156 89.5001C118.852 87.1718 112.189 85.9661 105.469 85.9376C93.0274 86.0035 80.9252 90.0013 70.8925 97.3595C60.8599 104.718 53.4106 115.059 49.6095 126.906C38.7454 130.006 29.3684 136.93 23.2082 146.4C17.0479 155.871 14.5198 167.249 16.0901 178.437C17.6604 189.625 23.2232 199.868 31.7525 207.277C40.2818 214.686 51.2024 218.761 62.5002 218.75H148.438C156.007 218.779 163.47 216.968 170.183 213.473C176.897 209.977 182.66 204.902 186.977 198.685C191.293 192.467 194.034 185.293 194.962 177.781C195.89 170.269 194.978 162.644 192.305 155.563C200.458 154.26 208.243 151.251 215.153 146.731C222.062 142.212 227.939 136.284 232.399 129.336C233.546 127.593 234.219 125.581 234.352 123.499C234.485 121.417 234.073 119.336 233.156 117.461V117.461ZM148.438 203.125H62.5002C54.6744 203.138 47.1295 200.209 41.3622 194.919C35.5949 189.63 32.0265 182.366 31.3647 174.568C30.7029 166.77 32.9962 159.008 37.7896 152.822C42.5829 146.636 49.5263 142.478 57.2423 141.172L62.422 140.297L63.5548 135.172C65.6749 125.636 70.9832 117.108 78.6035 110.996C86.2237 104.884 95.7003 101.553 105.469 101.553C115.238 101.553 124.714 104.884 132.334 110.996C139.955 117.108 145.263 125.636 147.383 135.172L148.516 140.297L153.695 141.18C161.402 142.496 168.333 146.658 173.117 152.841C177.9 159.024 180.188 166.778 179.527 174.568C178.866 182.358 175.304 189.615 169.546 194.904C163.789 200.192 156.255 203.126 148.438 203.125ZM183.32 140.617H183.156C177.314 134.082 169.745 129.329 161.32 126.906C157.649 115.478 150.559 105.451 141.008 98.1798C140.93 97.3907 140.727 96.6407 140.688 95.836C140.006 85.8414 142.503 75.8874 147.822 67.3979C153.14 58.9084 161.007 52.3183 170.297 48.5704C167.846 58.9508 167.945 69.7703 170.584 80.1044C173.224 90.4385 178.325 99.9801 185.453 107.914C193.565 116.736 204.218 122.818 215.938 125.32C211.957 130.108 206.971 133.96 201.334 136.604C195.697 139.248 189.547 140.618 183.32 140.617V140.617Z" fill="white"/>
</svg>
